<svg id="Layer_1" enable-background="new 0 0 256 256" height="512" viewBox="0 0 256 256" width="512" xmlns="http://www.w3.org/2000/svg"><path d="m4 100h101.57v22.792h-101.57z" fill="#7bac51"/><path d="m95.748 100h9.822v22.792h-9.822z" fill="#5d8e33"/><path d="m4 100h9.822v22.792h-9.822z" fill="#99ca6f"/><path d="m105.57 124.792h-101.57c-1.104 0-2-.896-2-2v-22.792c0-1.104.896-2 2-2h101.57c1.104 0 2 .896 2 2v22.792c0 1.104-.895 2-2 2zm-99.57-4h97.57v-18.792h-97.57z" fill="#690589"/><path d="m4 213.208h101.57v22.792h-101.57z" fill="#ff4397"/><path d="m95.748 213.208h9.822v22.792h-9.822z" fill="#e12579"/><path d="m4 213.208h9.822v22.792h-9.822z" fill="#ff61b5"/><path d="m105.57 238h-101.57c-1.104 0-2-.896-2-2v-22.792c0-1.104.896-2 2-2h101.57c1.104 0 2 .896 2 2v22.792c0 1.104-.895 2-2 2zm-99.57-4h97.57v-18.792h-97.57z" fill="#690589"/><path d="m150.43 20h101.57v22.792h-101.57z" fill="#ff4397"/><path d="m242.178 20h9.822v22.792h-9.822z" fill="#e12579"/><path d="m150.43 20h9.822v22.792h-9.822z" fill="#ff61b5"/><path d="m252 44.792h-101.57c-1.104 0-2-.896-2-2v-22.792c0-1.104.896-2 2-2h101.57c1.104 0 2 .896 2 2v22.792c0 1.104-.896 2-2 2zm-99.57-4h97.57v-18.792h-97.57z" fill="#690589"/><path d="m150.43 143.208h101.57v22.792h-101.57z" fill="#fcc24c"/><path d="m242.178 143.208h9.822v22.792h-9.822z" fill="#dea42e"/><path d="m150.43 143.208h9.822v22.792h-9.822z" fill="#fce06a"/><path d="m252 168h-101.57c-1.104 0-2-.896-2-2v-22.792c0-1.104.896-2 2-2h101.57c1.104 0 2 .896 2 2v22.792c0 1.104-.896 2-2 2zm-99.57-4h97.57v-18.792h-97.57z" fill="#690589"/><ellipse cx="127.042" cy="128" fill="#f4efed" rx="50.785" ry="50.785" transform="matrix(.311 -.951 .951 .311 -34.107 208.962)"/><path d="m127.042 77.215c-1.351 0-2.685.069-4.009.172 26.172 2.046 46.776 23.916 46.776 50.613s-20.604 48.566-46.776 50.613c1.324.104 2.658.172 4.009.172 28.048 0 50.785-22.737 50.785-50.785s-22.738-50.785-50.785-50.785z" fill="#d6d1cf"/><path d="m127.042 178.785c1.351 0 2.685-.069 4.009-.172-26.172-2.046-46.776-23.916-46.776-50.613s20.604-48.567 46.776-50.613c-1.324-.104-2.658-.172-4.009-.172-28.048 0-50.785 22.737-50.785 50.785-.001 28.048 22.737 50.785 50.785 50.785z" fill="#fff"/><path d="m127.042 180.785c-29.105 0-52.785-23.679-52.785-52.785s23.68-52.785 52.785-52.785 52.785 23.679 52.785 52.785-23.68 52.785-52.785 52.785zm0-101.57c-26.9 0-48.785 21.885-48.785 48.785s21.885 48.785 48.785 48.785 48.785-21.885 48.785-48.785-21.885-48.785-48.785-48.785z" fill="#690589"/><path d="m83.821 130.173c-1.104 0-2-.896-2-2 0-4.257.579-8.477 1.72-12.541.298-1.063 1.401-1.685 2.467-1.385 1.063.298 1.684 1.402 1.385 2.466-1.043 3.712-1.571 7.568-1.571 11.459-.001 1.105-.896 2.001-2.001 2.001z" fill="#690589"/><path d="m100.1 153.825c1.389 3.876 7.218 5.333 13.018 3.254s9.376-6.907 7.987-10.783-7.218-5.333-13.018-3.254c-5.801 2.079-9.377 6.907-7.987 10.783z" fill="#fcc24c"/><path d="m154.283 109.543-32.879 9.554v-11.015l32.879-9.554z" fill="#fcc24c"/><path d="m132.936 144.192c1.389 3.876 7.218 5.333 13.018 3.254s9.376-6.907 7.987-10.783-7.218-5.333-13.018-3.254c-5.801 2.079-9.377 6.907-7.987 10.783z" fill="#fcc24c"/><g fill="#690589"><path d="m121.404 121.097c-.428 0-.851-.138-1.201-.4-.503-.378-.799-.97-.799-1.6v-11.014c0-.89.588-1.672 1.441-1.92l32.879-9.555c.604-.175 1.256-.057 1.76.321.503.378.799.97.799 1.6v11.015c0 .89-.588 1.672-1.442 1.92l-32.879 9.554c-.183.052-.371.079-.558.079zm2-11.513v6.849l28.879-8.392v-6.849zm30.879-.042h.01z"/><path d="m121.404 149.655c-1.104 0-2-.896-2-2v-28.558c0-1.104.896-2 2-2s2 .896 2 2v28.558c0 1.104-.895 2-2 2z"/><path d="m154.283 140.076c-1.104 0-2-.896-2-2v-28.558c0-1.104.896-2 2-2s2 .896 2 2v28.558c0 1.105-.895 2-2 2z"/><path d="m140.666 150.406c-4.562 0-8.349-2.013-9.613-5.54-1.788-4.992 2.251-10.851 9.195-13.34 6.943-2.489 13.784-.53 15.575 4.461.904 2.523.346 5.34-1.573 7.93-1.741 2.351-4.447 4.272-7.621 5.41-2.038.732-4.067 1.079-5.963 1.079zm-5.848-6.889c.997 2.784 5.789 3.72 10.461 2.046 2.401-.861 4.5-2.328 5.757-4.025.636-.859 1.614-2.546 1.021-4.2-.998-2.783-5.788-3.719-10.46-2.045-4.671 1.673-7.776 5.44-6.779 8.224z"/><path d="m107.831 160.04c-4.563 0-8.35-2.013-9.614-5.54-.904-2.523-.346-5.34 1.573-7.931 1.741-2.351 4.448-4.272 7.622-5.41 6.943-2.489 13.784-.53 15.575 4.461.904 2.523.346 5.34-1.573 7.931-1.741 2.351-4.447 4.272-7.621 5.41-2.037.731-4.067 1.079-5.962 1.079zm-5.849-6.89c.997 2.782 5.785 3.722 10.461 2.046 2.401-.861 4.5-2.328 5.757-4.025.636-.858 1.614-2.546 1.021-4.2-.997-2.783-5.787-3.719-10.46-2.045-2.402.861-4.501 2.328-5.758 4.025-.635.858-1.613 2.545-1.021 4.199z"/></g></svg>